<?xml version="1.0" encoding="UTF-8"?>
<svg id="uuid-4690012e-b33c-4de3-bc18-6d38132838f0" data-name="图层 1" xmlns="http://www.w3.org/2000/svg" xmlns:xlink="http://www.w3.org/1999/xlink" viewBox="0 0 200 200">
  <defs>
    <style>
      .uuid-63983905-f2d9-424b-a86d-97e0e9e17858 {
        fill: #d5ff9f;
      }

      .uuid-51492dcb-9ef5-4236-9943-68ef3e8cf3be {
        fill: #2563eb;
      }

      .uuid-f71ab541-e95a-4fed-aaf5-34a0fc716cde {
        fill: url(#uuid-743ffd34-54f1-409a-981d-660db1cf3ac6);
      }

      .uuid-297e5ac0-34b0-4693-9f73-7ae2b1a4ba79 {
        fill: url(#uuid-efa1b91c-c273-42d0-98c0-d5907f6cf1be);
      }

      .uuid-826c2b92-32c8-49cd-91e1-9c26ec2049d1 {
        fill: url(#uuid-79fcdc43-b4d8-45c9-b74f-17a9a3fef586);
      }

      .uuid-4953e7e3-c03a-467b-ad20-7146fd165ea8 {
        fill: url(#uuid-16c2a7b5-8c72-40c0-8f57-ec77f79bfabe);
      }
    </style>
    <linearGradient id="uuid-16c2a7b5-8c72-40c0-8f57-ec77f79bfabe" data-name="未命名的渐变 17" x1="-185.25" y1="-67.25" x2="-155.47" y2="-102.36" gradientTransform="translate(304 148)" gradientUnits="userSpaceOnUse">
      <stop offset=".06" stop-color="#fff"/>
      <stop offset=".94" stop-color="#1b15ff"/>
    </linearGradient>
    <linearGradient id="uuid-efa1b91c-c273-42d0-98c0-d5907f6cf1be" data-name="未命名的渐变 24" x1="-.95" y1="73.3" x2="56.39" y2="106.64" gradientUnits="userSpaceOnUse">
      <stop offset="0" stop-color="#55f3ff"/>
      <stop offset="1" stop-color="#1b15ff"/>
    </linearGradient>
    <linearGradient id="uuid-79fcdc43-b4d8-45c9-b74f-17a9a3fef586" data-name="未命名的渐变 43" x1="70.63" y1="46.82" x2="114.91" y2="124.82" gradientUnits="userSpaceOnUse">
      <stop offset=".17" stop-color="#55f3ff"/>
      <stop offset=".18" stop-color="#52e9ff"/>
      <stop offset=".24" stop-color="#44b6ff"/>
      <stop offset=".29" stop-color="#3989ff"/>
      <stop offset=".35" stop-color="#2f65ff"/>
      <stop offset=".4" stop-color="#2849ff"/>
      <stop offset=".46" stop-color="#2335ff"/>
      <stop offset=".51" stop-color="#2029ff"/>
      <stop offset=".57" stop-color="#1f26ff"/>
      <stop offset=".64" stop-color="#321dfc"/>
      <stop offset=".8" stop-color="#560df7"/>
      <stop offset=".92" stop-color="#6c03f5"/>
      <stop offset="1" stop-color="#7500f4"/>
    </linearGradient>
    <linearGradient id="uuid-743ffd34-54f1-409a-981d-660db1cf3ac6" data-name="未命名的渐变 48" x1="138.08" y1="98.83" x2="214.65" y2="73.45" gradientUnits="userSpaceOnUse">
      <stop offset="0" stop-color="#955fff"/>
      <stop offset=".04" stop-color="#8261ff"/>
      <stop offset=".14" stop-color="#5e67ff"/>
      <stop offset=".23" stop-color="#426bff"/>
      <stop offset=".33" stop-color="#2e6eff"/>
      <stop offset=".43" stop-color="#2270ff"/>
      <stop offset=".52" stop-color="#1f71ff"/>
      <stop offset=".53" stop-color="#1f71fe"/>
      <stop offset=".65" stop-color="#5ca3be"/>
      <stop offset=".77" stop-color="#8dca8c"/>
      <stop offset=".87" stop-color="#b0e768"/>
      <stop offset=".95" stop-color="#c6f852"/>
      <stop offset="1" stop-color="#ceff4a"/>
    </linearGradient>
  </defs>
  <g id="uuid-898d0db6-8448-4e9b-a524-5675cebcf0be" data-name="画板6">
    <ellipse class="uuid-63983905-f2d9-424b-a86d-97e0e9e17858" cx="97.38" cy="98.67" rx="83.61" ry="54.51" transform="translate(-32.07 49.06) rotate(-24.41)"/>
    <g>
      <g>
        <path class="uuid-4953e7e3-c03a-467b-ad20-7146fd165ea8" d="m45.51,91.67c0,15.48-3.75,19.23-22.38,19.23h-2.64c-13.06,0-15.64-1.08-15.64-5.2v-1.59c0-2.41,1.41-3.43,3.57-3.43h11.42c12.71,0,13.77-1.4,13.77-9.46v-19.99c0-2.41.88-3.81,3.1-3.81h5.62c2.23,0,3.16,1.52,3.16,3.93v20.31Z"/>
        <path class="uuid-4953e7e3-c03a-467b-ad20-7146fd165ea8" d="m87.52,110.9c-16.4,0-17.4-.32-17.4-5.14v-1.01c0-2.67,1.41-3.62,4.16-3.62h28c4.51,0,6.21-.83,6.21-3.55v-.63c0-2.35-1.7-3.17-6.15-3.17h-18.22c-9.61,0-13.53-2.98-13.53-11.87v-1.52c0-13.14,6.21-13.26,23.84-13.26h5.21c17.16,0,19.74.7,19.74,5.2v.63c0,3.43-1.82,3.68-4.45,3.68h-27.24c-4.69,0-5.51,1.21-5.51,3.05v.63c0,2.35.82,3.43,5.51,3.43h16.99c9.96,0,15.46,1.46,15.46,11.8v1.33c0,11.74-5.16,14.02-21.97,14.02h-10.66Z"/>
        <path class="uuid-4953e7e3-c03a-467b-ad20-7146fd165ea8" d="m144.64,74.54c0-5.2,3.57-7.11,7.79-7.11h24.6c12.18,0,15.93,2.67,15.93,10.79,0,4.38-1,6.6-3.34,8.25-.59.38-1,.76-1,1.27,0,.63.35.89.88,1.14,3.28,1.52,4.74,4.12,4.74,9.26,0,9.77-4.45,12.44-14.23,12.44h-27.59c-4.22,0-7.79-1.97-7.79-7.11v-28.94Zm33.04,9.9c2.46,0,3.87-.95,3.87-4,0-3.24-1.41-4.12-3.87-4.12h-19.21c-1.58,0-2.23.51-2.23,2.03v3.93c0,1.59.64,2.16,2.23,2.16h19.21Zm-19.21,8.25c-1.58,0-2.23.51-2.23,2.03v4.51c0,1.59.64,2.16,2.23,2.16h19.51c3.57,0,4.69-1.4,4.69-4.38s-1.17-4.32-4.69-4.32h-19.51Z"/>
      </g>
      <g>
        <path class="uuid-297e5ac0-34b0-4693-9f73-7ae2b1a4ba79" d="m45.51,91.67c0,15.48-3.75,19.23-22.38,19.23h-2.64c-13.06,0-15.64-1.08-15.64-5.2v-1.59c0-2.41,1.41-3.43,3.57-3.43h11.42c12.71,0,13.77-1.4,13.77-9.46v-19.99c0-2.41.88-3.81,3.1-3.81h5.62c2.23,0,3.16,1.52,3.16,3.93v20.31Z"/>
        <path class="uuid-826c2b92-32c8-49cd-91e1-9c26ec2049d1" d="m87.52,110.9c-16.4,0-17.4-.32-17.4-5.14v-1.01c0-2.67,1.41-3.62,4.16-3.62h28c4.51,0,6.21-.83,6.21-3.55v-.63c0-2.35-1.7-3.17-6.15-3.17h-18.22c-9.61,0-13.53-2.98-13.53-11.87v-1.52c0-13.14,6.21-13.26,23.84-13.26h5.21c17.16,0,19.74.7,19.74,5.2v.63c0,3.43-1.82,3.68-4.45,3.68h-27.24c-4.69,0-5.51,1.21-5.51,3.05v.63c0,2.35.82,3.43,5.51,3.43h16.99c9.96,0,15.46,1.46,15.46,11.8v1.33c0,11.74-5.16,14.02-21.97,14.02h-10.66Z"/>
        <path class="uuid-f71ab541-e95a-4fed-aaf5-34a0fc716cde" d="m144.64,74.54c0-5.2,3.57-7.11,7.79-7.11h24.6c12.18,0,15.93,2.67,15.93,10.79,0,4.38-1,6.6-3.34,8.25-.59.38-1,.76-1,1.27,0,.63.35.89.88,1.14,3.28,1.52,4.74,4.12,4.74,9.26,0,9.77-4.45,12.44-14.23,12.44h-27.59c-4.22,0-7.79-1.97-7.79-7.11v-28.94Zm33.04,9.9c2.46,0,3.87-.95,3.87-4,0-3.24-1.41-4.12-3.87-4.12h-19.21c-1.58,0-2.23.51-2.23,2.03v3.93c0,1.59.64,2.16,2.23,2.16h19.21Zm-19.21,8.25c-1.58,0-2.23.51-2.23,2.03v4.51c0,1.59.64,2.16,2.23,2.16h19.51c3.57,0,4.69-1.4,4.69-4.38s-1.17-4.32-4.69-4.32h-19.51Z"/>
      </g>
    </g>
    <g>
      <path class="uuid-51492dcb-9ef5-4236-9943-68ef3e8cf3be" d="m32.3,130.24c2.83,0,3.47.42,3.47,2.57v.19c0,2.15-.65,2.57-3.47,2.57h-2.42c-.26,0-.41.09-.41.35v.88c0,.4-.16.64-.56.64h-.98c-.4,0-.57-.25-.57-.66v-5.36c0-.87.65-1.19,1.41-1.19h3.55Zm-2.42,1.59c-.26,0-.41.09-.41.35v1.42c0,.26.15.37.41.37h2.07c1.59,0,1.74-.14,1.74-1.02v-.09c0-.89-.15-1.03-1.74-1.03h-2.07Z"/>
      <path class="uuid-51492dcb-9ef5-4236-9943-68ef3e8cf3be" d="m42.08,133.93c0,1.69.18,1.81,2.58,1.81h3.8c.39,0,.63.16.63.56v.32c0,.71-.47.87-3.57.87h-.77c-4.22,0-4.84-.49-4.84-3.53v-.17c0-3.11.68-3.61,4.84-3.61h.77c3.1,0,3.57.12,3.57.87v.28c0,.4-.24.56-.63.56h-3.8c-2.4,0-2.58.16-2.58,1.94v.11Z"/>
      <path class="uuid-51492dcb-9ef5-4236-9943-68ef3e8cf3be" d="m61.01,135.81c.39,0,.63.16.63.56v.51c0,.4-.24.56-.63.56h-6.03c-.76,0-1.41-.33-1.41-1.19v-4.83c0-.87.65-1.19,1.41-1.19h5.9c.39,0,.63.16.63.56v.47c0,.39-.24.56-.63.56h-4.87c-.26,0-.41.09-.41.35v.52c0,.26.15.37.41.37h4.59c.4,0,.63.16.63.56v.38c0,.39-.23.56-.63.56h-4.59c-.26,0-.41.1-.41.35v.52c0,.26.15.37.41.37h5Z"/>
      <path class="uuid-51492dcb-9ef5-4236-9943-68ef3e8cf3be" d="m75.08,132.23c0-.26-.11-.36-.41-.36h-2.08c-.39,0-.64-.16-.64-.56v-.51c0-.39.24-.56.64-.56h7.12c.39,0,.64.16.64.56v.51c0,.39-.24.56-.64.56h-2.08c-.31,0-.41.1-.41.36v4.57c0,.4-.16.64-.56.64h-1.01c-.4,0-.57-.25-.57-.66v-4.55Z"/>
      <path class="uuid-51492dcb-9ef5-4236-9943-68ef3e8cf3be" d="m86,137.47c-2.58,0-3.33-.32-3.33-2.5v-.09c0-2.16.89-2.55,3.08-2.55h.36c2.35,0,3.25.1,3.25,2.01,0,.73-.35,1.01-1.01,1.01h-3.26c-.37,0-.52.06-.52.3,0,.35.12.43,1.51.43h2.53c.4,0,.63.14.63.53v.19c0,.61-.33.68-2.83.68h-.43Zm1.1-3.19c.37,0,.4-.13.4-.31,0-.32-.29-.46-1.52-.46-1.08,0-1.39.13-1.39.52,0,.16.04.24.41.24h2.1Z"/>
      <path class="uuid-51492dcb-9ef5-4236-9943-68ef3e8cf3be" d="m95.45,134.94c0,.78.37,1.02,1.56,1.02h2.53c.4,0,.63.14.63.53v.26c0,.61-.33.72-2.83.72h-.43c-2.58,0-3.43-.32-3.43-2.51v-.11c0-2.18.94-2.53,3.43-2.53h.43c2.5,0,2.83.07,2.83.69v.25c0,.39-.23.53-.63.53h-2.53c-1.19,0-1.56.24-1.56,1.03v.12Z"/>
      <path class="uuid-51492dcb-9ef5-4236-9943-68ef3e8cf3be" d="m108.19,132.32c2.81,0,3.29.29,3.29,2.42v2.06c0,.4-.16.64-.56.64h-.85c-.4,0-.56-.23-.56-.64v-1.63c0-1.29-.22-1.46-1.5-1.46h-.82c-.4,0-.64.17-.64.56v2.53c0,.4-.16.64-.56.64h-.84c-.4,0-.57-.25-.57-.66v-5.91c0-.4.16-.64.56-.64h.84c.4,0,.57.25.57.66v.97c0,.4.13.46.92.46h.71Z"/>
      <path d="m117.98,136.8c0,.4-.16.64-.56.64h-.85c-.39,0-.56-.23-.56-.64v-3.39c0-.57.28-1.09,1.37-1.09h2.23c2.81,0,3.29.29,3.29,2.42v2.06c0,.4-.16.64-.56.64h-.85c-.4,0-.56-.23-.56-.64v-1.63c0-1.29-.22-1.46-1.5-1.46h-.82c-.4,0-.63.17-.63.56v2.53Z"/>
      <path d="m130.48,137.47c-2.61,0-3.25-.34-3.25-2.56v-.05c0-2.22.67-2.53,3.25-2.53h.48c2.6,0,3.25.31,3.25,2.53v.05c0,2.22-.65,2.56-3.25,2.56h-.48Zm.41-1.43c1.23,0,1.39-.15,1.39-1.13v-.05c0-.98-.16-1.13-1.39-1.13h-.35c-1.23,0-1.39.15-1.39,1.13v.05c0,.99.16,1.13,1.39,1.13h.35Z"/>
      <path d="m140.54,136.8c0,.4-.16.64-.56.64h-.84c-.4,0-.57-.25-.57-.66v-5.91c0-.4.16-.64.56-.64h.84c.4,0,.57.25.57.66v5.91Z"/>
      <path d="m148.14,137.47c-2.61,0-3.25-.34-3.25-2.56v-.05c0-2.22.67-2.53,3.25-2.53h.48c2.6,0,3.25.31,3.25,2.53v.05c0,2.22-.65,2.56-3.25,2.56h-.48Zm.41-1.43c1.23,0,1.39-.15,1.39-1.13v-.05c0-.98-.16-1.13-1.39-1.13h-.35c-1.23,0-1.39.15-1.39,1.13v.05c0,.99.16,1.13,1.39,1.13h.35Z"/>
      <path d="m162.97,136.98c0,1.87-.83,2.3-3.43,2.3h-.44c-2.5,0-2.88-.11-2.88-.72v-.18c0-.39.23-.53.64-.53h2.86c1.17,0,1.37-.18,1.37-.53,0-.2-.11-.29-.41-.29h-1.89c-2.23,0-2.75-.36-2.75-2.3v-.15c0-1.82.62-2.27,2.84-2.27h2.12c1.44,0,1.99.54,1.99,1.72v2.94Zm-1.91-2.39c0-.78-.24-.94-1.45-.94h-.31c-1.09,0-1.35.19-1.35.94v.15c0,.78.2.94,1.24.94h.52c1.14,0,1.34-.15,1.34-.89v-.2Z"/>
      <path d="m170.2,135.55c.07.19.13.23.22.23.11,0,.17-.04.24-.22l1.11-2.71c.15-.36.29-.5.69-.5h.78c.31,0,.57.15.57.42,0,.12-.04.24-.07.31l-2.26,4.51c-.69,1.37-1.05,1.64-2.42,1.64h-.29c-.7,0-.95-.19-.95-.59v-.22c0-.4.26-.54.66-.54h.26c.59,0,.84-.11.97-.36.03-.06.04-.13.04-.19,0-.07-.02-.11-.14-.11h-.07c-.37,0-.55-.21-.72-.58l-1.7-3.56c-.03-.06-.07-.2-.07-.31,0-.28.26-.42.57-.42h.9c.35,0,.49.15.62.5l1.05,2.7Z"/>
    </g>
  </g>
</svg>