<svg t="1704787086882" class="icon" viewBox="0 0 1541 1024" version="1.1" xmlns="http://www.w3.org/2000/svg" p-id="3010" width="200" height="200"><path d="M6.305 1017.718h1519.039V7.538H6.305v1010.18z m1521.551 2.513v-3.77 3.77zM0.023 1024V0h1531.603v1022.744H0.023z" fill="#353636" p-id="3011"></path><path d="M3.793 3.77h762.66v1016.46H3.793z" fill="#00964B" p-id="3012"></path><path d="M765.196 3.77h762.66v1016.46h-762.66z" fill="#FFFFFF" p-id="3013"></path><path d="M917.226 389.497l-3.77 94.233 86.695 31.411-89.207 25.129-3.77 94.233-51.514-77.9-90.464 25.13 57.797-72.874-51.515-77.9 87.951 32.668z" fill="#DC2A1B" p-id="3014"></path><path d="M820.48 742.557c-126.9 0-229.93-103.028-229.93-229.929 0-128.157 103.03-231.185 229.93-231.185 72.873 0 138.208 33.924 179.67 86.694-47.744-76.643-133.182-126.9-229.928-126.9-149.517 0-271.391 121.875-271.391 271.391 0 149.517 121.874 271.392 271.391 271.392 96.746 0 182.184-51.514 229.929-126.901-41.463 51.514-106.798 85.438-179.671 85.438z" fill="#DC2A1B" p-id="3015"></path></svg>