<svg t="1704788592345" class="icon" viewBox="0 0 1501 1024" version="1.1" xmlns="http://www.w3.org/2000/svg" p-id="4216" width="200" height="200"><path d="M0.205 1003.52h1500.023V0.683H0.205z" fill="#DE2910" p-id="4217"></path><path d="M516.3 413.286l-2.184 33.724 31.403 12.425-32.768 8.465-2.185 33.723-18.022-28.672-32.905 8.397 21.573-25.941-18.023-28.672 31.54 12.493 21.572-25.942z m80.897-103.15l10.24 32.153h33.928l-27.306 19.934 10.24 32.154-27.307-20.07-27.307 19.933 10.513-32.085-27.306-19.798h33.86l10.445-32.222z m34.543-137.08l-15.292 30.174 23.893 23.893-33.382-5.325-15.497 30.174-5.188-33.587-33.45-5.188 30.242-15.36-5.257-33.383 23.757 23.894 30.174-15.292zM516.437 63.693l-2.048 33.655 31.403 12.493-32.836 8.465-2.185 33.656-18.09-28.672-32.7 8.465 21.572-25.942-18.022-28.672 31.402 12.493 21.504-25.941z m-267.605 51.063l31.676 97.622h102.81l-83.081 60.28 31.676 97.825-83.15-60.348-83.08 60.348 31.676-97.826-83.08-60.348h102.809l31.676-97.621z" fill="#FFDE00" p-id="4218"></path></svg>